<svg xmlns="http://www.w3.org/2000/svg" viewBox="0 0 512 512">
  <rect width="512" height="512" rx="112" ry="112" fill="#111015"/>

  <!-- Gauge arc -->
  <g transform="translate(64, 40) scale(16)" 
     fill="none" stroke="white" stroke-width="1.5" 
     stroke-linecap="round">
    <path d="M3.34 19a10 10 0 1 1 17.32 0"/>
  </g>

  <!-- Major tick marks -->
  <g stroke="white" stroke-width="3.5" stroke-linecap="round" opacity="0.85">
    <line x1="143.4" y1="329.0" x2="127.8" y2="338.0"/>
    <line x1="132.4" y1="223.8" x2="115.2" y2="218.3"/>
    <line x1="203.1" y1="145.2" x2="195.8" y2="128.8"/>
    <line x1="308.9" y1="145.2" x2="316.2" y2="128.8"/>
    <line x1="379.6" y1="223.8" x2="396.8" y2="218.3"/>
    <line x1="368.6" y1="329.0" x2="384.2" y2="338.0"/>
  </g>

  <!-- Minor tick marks -->
  <g stroke="white" stroke-width="2.5" stroke-linecap="round" opacity="0.65">
    <line x1="125.7" y1="306.3" x2="115.2" y2="309.7"/>
    <line x1="119.8" y1="278.3" x2="108.8" y2="279.5"/>
    <line x1="119.8" y1="249.7" x2="108.8" y2="248.5"/>
    <line x1="137.4" y1="195.5" x2="127.8" y2="190.0"/>
    <line x1="154.2" y1="172.3" x2="146.0" y2="165.0"/>
    <line x1="175.5" y1="153.2" x2="169.0" y2="144.3"/>
    <line x1="227.5" y1="130.0" x2="225.2" y2="119.2"/>
    <line x1="256.0" y1="127.0" x2="256.0" y2="116.0"/>
    <line x1="284.5" y1="130.0" x2="286.8" y2="119.2"/>
    <line x1="336.5" y1="153.2" x2="343.0" y2="144.3"/>
    <line x1="357.8" y1="172.3" x2="366.0" y2="165.0"/>
    <line x1="374.6" y1="195.5" x2="384.2" y2="190.0"/>
    <line x1="392.2" y1="249.7" x2="403.2" y2="248.5"/>
    <line x1="392.2" y1="278.3" x2="403.2" y2="279.5"/>
    <line x1="386.3" y1="306.3" x2="396.8" y2="309.7"/>
  </g>

  <!-- Center pivot dot -->
  <circle cx="256" cy="264" r="8" fill="white"/>

  <!-- Tapered needle -->
  <polygon points="341.8,192.0 260.5,269.4 251.5,258.6" fill="white" opacity="0.95"/>

  <!-- ₹ below pivot -->
  <text x="256" y="380"
        font-family="Lato, sans-serif" font-weight="500" font-size="160"
        fill="white" text-anchor="middle" dominant-baseline="central">₹</text>
</svg>